<svg width="825" height="100" viewBox="0 0 825 100" fill="none" xmlns="http://www.w3.org/2000/svg">
	<g transform="translate(-100 -71)">
<g clip-path="url(#clip0)">
<path d="M922.002 117.364V119.499C922.002 124.516 917.948 128.572 912.935 128.572C907.922 128.572 903.869 124.516 903.869 119.499V117.364C903.869 112.347 907.922 108.291 912.935 108.291C917.948 108.291 922.002 112.347 922.002 117.364Z" fill="url(#paint0_linear)"/>
<path d="M858.751 83.6372V153.233C858.751 158.25 854.698 162.306 849.685 162.306C844.672 162.306 840.619 158.25 840.619 153.233V83.6372C840.619 78.6204 844.672 74.5642 849.685 74.5642C854.698 74.5642 858.751 78.6204 858.751 83.6372Z" fill="url(#paint1_linear)"/>
<path d="M795.823 81.073V155.792C795.823 160.809 791.769 164.865 786.756 164.865C781.743 164.865 777.69 160.809 777.69 155.792V81.073C777.69 76.0562 781.743 72 786.756 72C791.769 72 795.823 76.0562 795.823 81.073Z" fill="url(#paint2_linear)"/>
<path d="M890.218 105.194V131.773C890.218 136.79 886.165 140.846 881.152 140.846C876.139 140.846 872.085 136.79 872.085 131.773V105.194C872.085 100.177 876.139 96.1211 881.152 96.1211C886.058 96.1211 890.218 100.177 890.218 105.194Z" fill="url(#paint3_linear)"/>
<path d="M827.289 96.0159V140.741C827.289 145.757 823.236 149.814 818.223 149.814C813.21 149.814 809.157 145.757 809.157 140.741V96.0159C809.157 90.9991 813.21 86.9429 818.223 86.9429C823.236 86.9429 827.289 90.9991 827.289 96.0159Z" fill="url(#paint4_linear)"/>
<path d="M195.007 163.797H111.066C106.053 163.797 102 159.741 102 154.724C102 149.707 106.053 145.651 111.066 145.651H195.007C200.02 145.651 204.073 149.707 204.073 154.724C204.073 159.741 200.02 163.797 195.007 163.797Z" fill="url(#paint5_linear)"/>
<path d="M248.55 128.569H148.184C143.171 128.569 139.117 124.513 139.117 119.496C139.117 114.479 143.171 110.423 148.184 110.423H248.55C253.563 110.423 257.616 114.479 257.616 119.496C257.616 124.513 253.563 128.569 248.55 128.569Z" fill="url(#paint6_linear)"/>
<path d="M248.552 163.797H229.673C224.66 163.797 220.607 159.741 220.607 154.724C220.607 149.707 224.66 145.651 229.673 145.651H248.552C253.565 145.651 257.618 149.707 257.618 154.724C257.618 159.741 253.565 163.797 248.552 163.797Z" fill="url(#paint7_linear)"/>
<path d="M164.61 75.2002H248.551C253.564 75.2002 257.617 79.2564 257.617 84.2732C257.617 89.2901 253.564 93.3463 248.551 93.3463H164.61C159.597 93.3463 155.543 89.2901 155.543 84.2732C155.543 79.2564 159.597 75.2002 164.61 75.2002Z" fill="url(#paint8_linear)"/>
<path d="M111.066 75.2002H129.945C134.958 75.2002 139.011 79.2564 139.011 84.2732C139.118 89.2901 134.958 93.3463 129.945 93.3463H111.066C106.053 93.3463 102 89.2901 102 84.2732C102 79.2564 106.053 75.2002 111.066 75.2002Z" fill="url(#paint9_linear)"/>
<path d="M283.535 75.8413H325.132C335.372 75.8413 343.478 78.6166 348.598 83.7402C352.651 87.7964 354.784 92.8132 354.784 99.2177C354.784 109.358 349.451 115.015 343.051 118.538C353.397 122.487 359.797 128.572 359.797 140.847C359.797 157.285 346.464 165.398 326.306 165.398H283.748V75.8413H283.535ZM320.866 112.027C329.612 112.027 335.052 109.251 335.052 102.313C335.052 96.4424 330.465 93.1334 322.146 93.1334H302.734V112.027H320.866ZM326.199 148.212C334.945 148.212 340.171 145.117 340.171 138.178C340.171 132.201 335.692 128.465 325.559 128.465H302.841V148.212H326.199V148.212Z" fill="black"/>
<path d="M462.086 145.974V113.524H453.873V96.8726H462.086V79.2603H481.498V96.7659H497.603V113.418H481.498V142.771C481.498 147.255 483.418 149.389 487.791 149.389C491.417 149.389 494.617 148.536 497.39 146.934V162.519C493.337 164.974 488.537 166.468 482.031 166.468C470.192 166.575 462.086 161.878 462.086 145.974Z" fill="black"/>
<path d="M534.932 93.9874H507.734V75.8413H581.969V93.9874H554.771V165.398H535.039V93.9874H534.932Z" fill="black"/>
<path d="M577.381 145.438C577.381 130.494 588.793 123.556 605.005 123.556C611.938 123.556 616.951 124.73 621.751 126.331V125.264C621.751 117.152 616.738 112.669 607.032 112.669C599.566 112.669 594.34 114.056 588.153 116.404L583.247 101.567C590.82 98.2584 598.179 96.0168 609.805 96.0168C620.471 96.0168 628.151 98.7921 632.95 103.702C638.07 108.826 640.417 116.404 640.417 125.584V165.399H621.644V157.927C616.951 163.157 610.338 166.68 600.952 166.68C588.047 166.787 577.381 159.315 577.381 145.438ZM622.071 141.275V137.86C618.765 136.365 614.392 135.298 609.699 135.298C601.379 135.298 596.259 138.607 596.259 145.011C596.259 150.242 600.632 153.337 606.925 153.337C615.885 153.337 622.071 148.32 622.071 141.275Z" fill="black"/>
<path d="M658.125 72H677.537V165.506H658.125V72Z" fill="black"/>
<path d="M735.347 123.876L761.479 96.8708H738.121L715.402 121.848V72H695.883V165.506H715.402V144.584L722.122 137.433L740.04 165.506H762.332L735.347 123.876Z" fill="black"/>
<path d="M407.795 95.5896C386.463 95.5896 370.571 111.601 370.571 131.348C370.571 151.309 386.25 167.106 407.582 167.106C428.914 167.106 444.806 151.095 444.806 131.348C444.806 111.281 429.021 95.5896 407.795 95.5896ZM422.941 136.899L403.956 147.893C399.582 150.455 394.143 147.253 394.143 142.236V120.247C394.143 115.23 399.582 112.135 403.956 114.59L422.941 125.584C427.314 128.146 427.314 134.444 422.941 136.899Z" fill="black"/>
</g>
</g>
<defs>
<linearGradient id="paint0_linear" x1="920.693" y1="118.439" x2="769.846" y2="118.439" gradientUnits="userSpaceOnUse">
<stop stop-color="#3FB7E9"/>
<stop offset="1" stop-color="#4781C2"/>
</linearGradient>
<linearGradient id="paint1_linear" x1="920.691" y1="118.442" x2="769.845" y2="118.442" gradientUnits="userSpaceOnUse">
<stop stop-color="#3FB7E9"/>
<stop offset="1" stop-color="#4781C2"/>
</linearGradient>
<linearGradient id="paint2_linear" x1="920.693" y1="118.44" x2="769.846" y2="118.44" gradientUnits="userSpaceOnUse">
<stop stop-color="#3FB7E9"/>
<stop offset="1" stop-color="#4781C2"/>
</linearGradient>
<linearGradient id="paint3_linear" x1="920.694" y1="118.439" x2="769.846" y2="118.439" gradientUnits="userSpaceOnUse">
<stop stop-color="#3FB7E9"/>
<stop offset="1" stop-color="#4781C2"/>
</linearGradient>
<linearGradient id="paint4_linear" x1="920.694" y1="118.439" x2="769.848" y2="118.439" gradientUnits="userSpaceOnUse">
<stop stop-color="#3FB7E9"/>
<stop offset="1" stop-color="#4781C2"/>
</linearGradient>
<linearGradient id="paint5_linear" x1="86.5045" y1="154.686" x2="265.645" y2="154.686" gradientUnits="userSpaceOnUse">
<stop stop-color="#3FB7E9"/>
<stop offset="1" stop-color="#4781C2"/>
</linearGradient>
<linearGradient id="paint6_linear" x1="86.5043" y1="119.493" x2="265.645" y2="119.493" gradientUnits="userSpaceOnUse">
<stop stop-color="#3FB7E9"/>
<stop offset="1" stop-color="#4781C2"/>
</linearGradient>
<linearGradient id="paint7_linear" x1="86.5055" y1="154.686" x2="265.646" y2="154.686" gradientUnits="userSpaceOnUse">
<stop stop-color="#3FB7E9"/>
<stop offset="1" stop-color="#4781C2"/>
</linearGradient>
<linearGradient id="paint8_linear" x1="86.5048" y1="84.3053" x2="265.645" y2="84.3053" gradientUnits="userSpaceOnUse">
<stop stop-color="#3FB7E9"/>
<stop offset="1" stop-color="#4781C2"/>
</linearGradient>
<linearGradient id="paint9_linear" x1="86.5045" y1="84.3053" x2="265.645" y2="84.3053" gradientUnits="userSpaceOnUse">
<stop stop-color="#3FB7E9"/>
<stop offset="1" stop-color="#4781C2"/>
</linearGradient>
<clipPath id="clip0">
<rect x="102" y="72" width="820" height="95" fill="white"/>
</clipPath>
</defs>
</svg>
